<svg width="33" height="113" viewBox="0 0 33 113" fill="none" xmlns="http://www.w3.org/2000/svg">
<g opacity="0.38" filter="url(#filter0_i_1_798)">
<path d="M-0.000202858 7.76303L-0.000202179 -2.88497e-06L22.932 -8.80172e-07C25.7286 -6.35684e-07 28.5252 2.21801 29.8303 3.51185C31.1354 4.80569 32.9998 7.76303 32.9998 10.5355L33 102.464C33 103.943 32.4407 106.531 30.3898 108.934C28.339 111.337 25.5424 113 23.1186 113L-9.87877e-06 113L-9.21627e-06 105.422L21.8136 105.422C22.5593 105.422 23.8644 104.498 24.2373 104.128C24.6102 103.758 25.3559 102.834 25.3559 102.095L25.3557 12.5687C25.3557 10.5355 24.9829 9.98104 24.0507 8.87204C23.3049 7.98483 22.1241 7.76303 21.6269 7.76303L-0.000202858 7.76303Z" fill="#073478" fill-opacity="0.03"/>
</g>
<defs>
<filter id="filter0_i_1_798" x="0" y="0" width="33" height="117" filterUnits="userSpaceOnUse" color-interpolation-filters="sRGB">
<feFlood flood-opacity="0" result="BackgroundImageFix"/>
<feBlend mode="normal" in="SourceGraphic" in2="BackgroundImageFix" result="shape"/>
<feColorMatrix in="SourceAlpha" type="matrix" values="0 0 0 0 0 0 0 0 0 0 0 0 0 0 0 0 0 0 127 0" result="hardAlpha"/>
<feOffset dy="4"/>
<feGaussianBlur stdDeviation="2"/>
<feComposite in2="hardAlpha" operator="arithmetic" k2="-1" k3="1"/>
<feColorMatrix type="matrix" values="0 0 0 0 0 0 0 0 0 0 0 0 0 0 0 0 0 0 0.25 0"/>
<feBlend mode="normal" in2="shape" result="effect1_innerShadow_1_798"/>
</filter>
</defs>
</svg>
