<svg width="243" height="221" viewBox="0 0 243 221" fill="none" xmlns="http://www.w3.org/2000/svg">
<g opacity="0.4" filter="url(#filter0_i_1_170)">
<path d="M-73 43.9905L-73 -2.76256e-05L186.323 -4.95487e-06C202.067 -3.57852e-06 217.81 12.5687 225.157 19.9005C232.504 27.2322 243 43.9905 243 59.7014L243 161.299C243 169.678 239.851 184.341 228.306 197.957C216.761 211.573 201.017 221 187.372 221L-73 221L-73 178.057L180.025 178.057C184.224 178.057 191.571 172.82 193.67 170.725C195.769 168.63 199.967 163.393 199.967 159.204L199.967 71.2228C199.967 59.7014 197.868 56.5592 192.62 50.2749C188.422 45.2474 181.775 43.9905 178.976 43.9905L-73 43.9905Z" fill="#073478"/>
</g>
<defs>
<filter id="filter0_i_1_170" x="-73" y="0" width="316" height="225" filterUnits="userSpaceOnUse" color-interpolation-filters="sRGB">
<feFlood flood-opacity="0" result="BackgroundImageFix"/>
<feBlend mode="normal" in="SourceGraphic" in2="BackgroundImageFix" result="shape"/>
<feColorMatrix in="SourceAlpha" type="matrix" values="0 0 0 0 0 0 0 0 0 0 0 0 0 0 0 0 0 0 127 0" result="hardAlpha"/>
<feOffset dy="4"/>
<feGaussianBlur stdDeviation="2"/>
<feComposite in2="hardAlpha" operator="arithmetic" k2="-1" k3="1"/>
<feColorMatrix type="matrix" values="0 0 0 0 0 0 0 0 0 0 0 0 0 0 0 0 0 0 0.25 0"/>
<feBlend mode="normal" in2="shape" result="effect1_innerShadow_1_170"/>
</filter>
</defs>
</svg>
